<svg width="16" height="15" viewBox="0 0 16 15" fill="none" xmlns="http://www.w3.org/2000/svg">
<path d="M11.6474 5.95264L9.14736 3.45264M1.95984 13.1401L4.07507 12.9051C4.3335 12.8764 4.46272 12.862 4.58349 12.8229C4.69065 12.7883 4.79262 12.7392 4.88664 12.6772C4.99262 12.6074 5.08455 12.5154 5.26842 12.3316L13.5224 4.07764C14.2127 3.38729 14.2127 2.268 13.5224 1.57764C12.832 0.887287 11.7127 0.887286 11.0224 1.57764L2.76842 9.83156C2.58456 10.0154 2.49262 10.1074 2.42274 10.2133C2.36073 10.3074 2.31172 10.4093 2.27703 10.5165C2.23794 10.6373 2.22358 10.7665 2.19486 11.0249L1.95984 13.1401Z" stroke="white" stroke-width="2" stroke-linecap="round" stroke-linejoin="round"/>
</svg>
